<?xml version="1.0" encoding="utf-8"?>
<!-- Generator: Adobe Illustrator 23.0.5, SVG Export Plug-In . SVG Version: 6.00 Build 0)  -->
<svg version="1.1" id="LOGOTYPES" xmlns="http://www.w3.org/2000/svg" xmlns:xlink="http://www.w3.org/1999/xlink" x="0px" y="0px"
	 viewBox="0 0 2359 553.1" style="enable-background:new 0 0 2359 553.1;" xml:space="preserve">
<style type="text/css">
	.st0{fill:#8D46BC;}
	.st1{fill:#6C2395;}
	.st2{fill:#3D0464;}
	.st3{fill:#E5D510;}
	.st4{fill:#E2A713;}
	.st5{fill:#FFFFFF;}
</style>
<g>
	<polyline class="st0" points="121.5,409.6 0,351.2 202.7,0 358,0 77.6,485.6 	"/>
	<polygon class="st0" points="202.7,0 155.2,351.2 358,0 	"/>
	<g>
		<path class="st1" d="M461,178.4L358,0H202.7L357,267.2C395.1,245,430.8,216,461,178.4z"/>
		<path class="st1" d="M508.5,260.6c-18.1,43-44.7,86.2-83.7,124l58.3,101l77.6-134.4L508.5,260.6z"/>
	</g>
	<path class="st2" d="M455.2,351.2C407.7,410.6,335.7,461.7,227,485.6h256.1l77.6-134.4H455.2z"/>
</g>
<path class="st3" d="M77.6,485.6c0,0-1-60.2-77.6-134.4c0,0,460.7,54.1,539.4-331.4C539.4,19.8,590.6,485.6,77.6,485.6z"/>
<path class="st4" d="M77.6,485.6c0,0,383.1-80.3,461.8-465.8C539.4,19.8,590.6,485.6,77.6,485.6z"/>
<g>
	<path class="st5" d="M892.5,479.1c-20.5,1.4-32.9,1.4-44.3-0.5c-7.8-0.9-11.9-5.5-16-17.3c-4.6-13.7-8.7-27.4-13.2-41.1
		c-4.6-13.2-10-16.9-23.7-16.9h-95.9c-13.7,0.5-18.3,5-23.7,21.9c-3.2,11-7.3,23.7-12.8,39.3c-3.7,10.1-10.5,15.1-20.6,15.1
		c-13.7,0-27.4,0.9-41.1-0.5c-11-1.4-14.2-6.8-10.5-19.6l30.1-93.6c21.5-66.7,43.4-132.9,64.8-199.5c4.6-13.2,9.6-16.9,23.7-16.9
		H751c12.3,0.5,27.9-0.9,43.4,0.5c7.8,0.9,12.3,5.9,16.4,18.3c31,95,61.6,189.9,92.7,285.4c0.9,3.7,1.8,7.8,2.7,12.8
		C907.6,474.6,903.5,478.7,892.5,479.1z M768.3,333c15.5-0.5,19.6-5.9,15.5-20.6c-2.7-8.7-5.5-18.3-9.6-30.1
		c-6.4-18.3-11-37.4-19.6-55.2c-1.4-2.7-2.7-6.4-6.4-6.4c-2.7,0-4.6,1.8-6.8,6.4c-11.9,28.8-20.5,58.4-29.7,87.7
		c-3.7,12.3,0.9,18.3,14.6,18.3H768.3z"/>
	<path class="st5" d="M1153.8,334.8v120.6c0,3.7,0,6.8-0.9,10c-1.4,9.1-4.6,12.3-15.5,12.8c-12.3,0.9-24.7,0.9-36.5,0
		c-12.3-0.5-16.4-5.9-16.4-18.3V342.2c0-9.1-0.5-17.8-2.3-26.9c-2.7-11.9-10-19.6-22.4-21.5c-12.3-1.8-24.7-2.3-36.5,0
		c-14.6,3.2-22.8,13.2-23.7,31.5c-1.8,42.9,0,86.3-0.5,129.2c0,3.7-0.5,7.3-0.9,11c-1.4,9.1-5,12.3-15.5,12.8
		c-11.9,0.9-24.2,0.9-36.5,0c-12.3-0.5-16.4-5.5-16.4-18.3V252.7c0-12.8,4.1-17.8,17.4-18.3c12.8-0.9,25.6-1.4,38.8,0.5
		c8.7,0.9,12.8,6.4,12.8,17.4c0.5,2.7-0.9,5.9,1.4,7.3c3.2,1.4,5.5-1.4,7.8-3.2c10-6.8,18.3-16,29.2-21c15.5-7.3,32-5.9,47.9-5.5
		c13.2,0.5,26,1.8,38.4,7.8c18.7,8.7,25.1,25.1,27.9,43.8C1154.2,298.8,1153.8,317,1153.8,334.8z"/>
	<path class="st5" d="M1434.2,347.6c-0.5,32.4-0.5,64.4-0.5,96.8c0.5,52.5-31,85.4-66.7,100.5c-16,7.3-33.8,7.8-51.1,7.8
		c-25.6,0.5-51.1,0.5-76.7,0.5c-13.2,0-16.9-3.7-17.4-16.9c0-7.3-0.5-14.6,0-21.5c0.9-12.3,6.4-17.4,18.7-17.8
		c23.7-0.5,47.5-0.5,71.2-0.9c10,0,20.6-0.9,30.6-3.7c15.1-4.1,21.9-13.2,22.8-29.7l0.5-7.8c0-9.1-2.3-11-11.4-9.6
		c-16.9,3.2-32.9,10-49.8,11.9c-31,3.7-62.1,3.7-90.9-10c-20.5-10-29.2-28.8-32.4-49.3c-6.4-39.3-7.3-78.1,2.3-116.9
		c6.8-26.5,24.7-42,51.6-47c27.9-5.5,56.6-6.4,84.9,0c11.9,2.7,21,10.5,31.5,16.4l3.7,1.8c5.9,3.2,9.1,1.4,9.6-5.5
		c0.9-10.5,2.3-11.9,12.8-12.3c14.2,0,28.8-0.9,43.4,0.9c9.6,0.9,13.2,6.8,13.2,19.6V347.6z M1363.9,369.5c2.7-16,2.7-32,0.5-47.5
		c-2.3-16-9.6-27.4-26-31.5c-11.4-3.2-22.8-3.2-34.7-3.7l-19.6,1.4c-20.6,2.3-32,11.4-35.6,31.1c-3.2,16.4-2.7,33.8,0,50.2
		c2.7,16.4,11.9,26.5,27.9,29.7c17.8,3.7,36.1,3.7,53.9,0.9C1351.6,396.9,1360.7,388.3,1363.9,369.5z"/>
	<path class="st5" d="M1696.4,368.6c-0.5,8.2-5.9,12.3-17.8,12.3h-127.9c-7.8,0.5-11,3.2-12.3,11c-1.4,5.9-1.8,12.3-0.9,18.3
		c1.4,9.6,8.7,15.5,21.9,17.4c23.3,3.2,46.6,1.4,69.9,0.9c18.3-0.5,27.4,6.9,27.4,25.6c0,5,0.5,10-0.9,15.5
		c-2.3,10-9.6,15.5-21.5,15.1c-28.8,0-58,1.4-87.2-1.4c-22.8-2.3-45.7-5.9-63.9-22.4c-14.2-13.2-20.1-30.6-22.8-49.3
		c-5.5-41.1-6.4-81.7,2.7-122.4c8.2-34.2,32-51.1,65.3-55.7c34.2-5,69-5.5,103.2,0.9c36.1,6.8,54.3,30.1,60.7,64.8
		C1696.4,322.1,1697.3,345.3,1696.4,368.6z M1561.6,286c-21,1.4-28.8,10-27.9,31c0.5,14.2,7.3,20.5,21.5,20.5h54.8
		c10.5-0.5,12.8-2.3,12.3-11.4l-0.9-14.2c-0.5-13.7-6.4-21.5-19.6-24.2C1588.6,284.6,1574.9,285.1,1561.6,286z"/>
	<path class="st5" d="M2094.6,344.4v117.8c0,11.9-5.5,16.9-16.9,16.9c-11.9,0.5-23.7,0.5-35.6,0c-11,0-16-5.5-16-16
		c-0.5-40.6-0.5-81.3-0.5-121.9c0-7.3-0.5-15.1-1.8-22.4c-3.2-16.9-11.9-24.2-29.2-25.6c-8.7-0.5-16.9-0.5-25.1,0.9
		c-17.4,2.7-25.1,11.9-26,32c-2.3,42.5-0.5,84.9-0.9,127.9c0,3.7,0,7.8-0.5,11.4c-0.9,8.2-5,12.3-13.2,13.2
		c-13.7,1.4-26.9,1.4-40.6,0.5c-11-0.9-14.6-6.4-14.6-19.2l-0.5-118.3c0-8.2,0-16.9-1.8-25.1c-3.2-13.7-10.5-20.5-24.2-22.8
		c-10.5-1.4-21.5-1.4-32,0.5c-15.1,2.7-22.8,12.3-23.7,30.6c-2.3,36.1-0.5,72.1-0.9,108.2c-0.5,10,0,20.5-0.5,31
		c-0.9,10-4.6,14.2-14.6,15.1c-13.2,0.9-26.5,0.9-39.7,0c-10.5-1.4-14.6-6.4-14.6-18.7V252.7c0.9-11.9,5-16.9,16.4-17.4
		c13.2-0.9,26.9-0.5,40.2,0c5.9,0.5,10,4.1,11.4,10c0.9,3.7,1.8,6.8,3.2,10.5c1.4,3.2,4.1,3.7,6.8,1.8c2.7-2.3,5.9-4.6,8.2-7.3
		c16.4-17.8,37.9-21,60.3-20.1c7.3,0.5,14.6,0.5,21.5,1.8c12.3,2.3,22.4,8.2,30.6,17.8c9.6,12.3,16.9,12.8,28.3,2.3
		c16.9-16.9,37.9-21.9,61.2-21.9c12.8,0,25.6,0,37.9,2.7c27.9,5.5,41.1,19.6,45.2,48.9C2095.5,302.9,2094.6,323.9,2094.6,344.4z"/>
	<path class="st5" d="M2342.2,391c0,24.2,0.5,47.9,0,72.1c0,10.5-5.5,15.5-16.4,16c-9.1,0.5-18.7,0.5-27.9,0
		c-12.3-0.5-22.4-11.4-22.4-24.7v-1.4l-0.9,0.9c-20.5,25.6-47.9,31.5-79,29.7c-12.8-0.5-25.6-0.9-38.4-3.7
		c-21.9-5-34.2-18.3-37.4-40.2c-3.7-21-3.7-42.5,0.5-63.9c4.6-24.7,18.7-37.9,46.1-42.5c36.5-5.5,73.1-7.3,108.7,6.4
		c0.5,0,0.9-0.5,0.9-0.5c0-11,0.5-21.9-5-32c-5.5-11.4-16.4-14.2-27.9-15.5c-24.7-2.7-48.9,0-73.1,6.4c-9.1,2.7-15.1-0.5-19.2-9.6
		c-3.7-8.2-5.9-16.4-7.8-25.1c-2.3-8.7,0.9-14.2,9.1-17.8c23.3-9.6,47.5-14.2,72.6-14.2c20.1,0,40.2-0.5,59.4,5.9
		c30.1,10,55.7,43.8,57.5,75.8C2343.6,339,2342.2,365,2342.2,391z M2276.9,381.9c0-0.9-0.5-1.4-1.4-1.8c-20.5-10-42-9.6-63.9-7.3
		c-11.9,0.9-22.4,4.6-25.6,18.3c-2.3,8.2-2.3,16.4-0.9,25.1c1.8,11.4,6.8,16,17.8,18.3c6.9,1.4,13.7,1.4,20.6,1.8l21.9-1.4
		c17.8-1.8,26.9-9.6,30.1-24.7C2277.4,400.6,2276.9,391.5,2276.9,381.9z"/>
</g>
</svg>
